<svg xmlns="http://www.w3.org/2000/svg" width="870" height="300" viewBox="0 0 870 300" version="1.1"><path d="M 17.131 40.818 C 16.509 45.667, 16 57.717, 16 67.594 C 16 77.471, 16.470 89.366, 17.044 94.026 C 17.619 98.687, 19.200 108.034, 20.559 114.797 C 21.919 121.560, 25.334 134.101, 28.149 142.666 C 31.404 152.567, 36.278 164.295, 41.533 174.869 C 46.079 184.016, 53.417 196.900, 57.840 203.500 C 62.264 210.100, 68.929 219.325, 72.653 224 C 76.377 228.675, 85.516 238.738, 92.962 246.363 C 100.408 253.988, 111 263.997, 116.500 268.607 C 122 273.216, 127.120 276.991, 127.878 276.994 C 128.636 276.997, 133.122 273.745, 137.846 269.766 C 142.571 265.787, 150.845 258.301, 156.233 253.130 C 161.620 247.959, 169.779 239.402, 174.363 234.114 C 178.948 228.826, 185.953 220.093, 189.930 214.707 C 193.908 209.321, 200.016 200.208, 203.504 194.456 C 206.992 188.704, 212.305 178.936, 215.311 172.749 C 218.317 166.562, 222.867 155.728, 225.421 148.674 C 227.976 141.620, 231.368 130.517, 232.960 124.001 C 234.551 117.486, 236.660 107.282, 237.647 101.327 C 238.972 93.333, 239.449 84.874, 239.471 69 C 239.487 57.175, 239.137 44.561, 238.694 40.968 C 238.250 37.375, 237.521 33.843, 237.073 33.118 C 236.447 32.106, 234.431 32.871, 228.379 36.417 C 224.046 38.957, 215.775 42.885, 210 45.147 C 204.225 47.409, 194.505 50.522, 188.401 52.065 C 182.296 53.608, 172.621 55.611, 166.901 56.518 C 161.063 57.443, 147.240 58.405, 135.395 58.712 C 122.070 59.057, 109.906 58.813, 102.395 58.051 C 95.853 57.387, 85.775 55.948, 80 54.852 C 74.225 53.757, 65.557 51.734, 60.738 50.356 C 55.919 48.978, 49.186 46.717, 45.776 45.331 C 42.366 43.945, 36.633 41.303, 33.038 39.459 C 29.442 37.615, 25.150 35.185, 23.500 34.060 C 21.850 32.934, 19.996 32.010, 19.381 32.007 C 18.724 32.003, 17.794 35.645, 17.131 40.818 M 229.889 40.997 C 227.902 42.047, 221.721 44.721, 216.152 46.939 C 210.584 49.158, 201.409 52.349, 195.764 54.031 C 190.119 55.713, 181.450 57.996, 176.500 59.104 C 171.550 60.211, 161.875 61.987, 155 63.048 C 148.125 64.110, 140.025 64.990, 137 65.003 C 133.975 65.016, 130.488 65.299, 129.250 65.630 C 127.066 66.216, 127 66.607, 127 78.954 C 127 85.951, 127.295 103.791, 127.655 118.600 C 128.310 145.524, 128.310 145.524, 133.457 140.512 C 136.288 137.755, 140.269 134.375, 142.303 133 C 144.738 131.354, 145.800 129.988, 145.411 129 C 145.086 128.175, 144.578 124.103, 144.281 119.950 C 143.890 114.473, 144.207 110.800, 145.437 106.569 C 146.756 102.030, 148.288 99.581, 152.347 95.522 C 155.812 92.058, 159.404 89.619, 163.049 88.255 C 166.066 87.126, 171.055 85.887, 174.134 85.502 C 177.484 85.084, 182.097 85.288, 185.617 86.010 C 188.853 86.674, 193.893 88.381, 196.818 89.804 C 199.743 91.227, 203.521 93.968, 205.213 95.895 C 206.904 97.822, 209.184 101.421, 210.277 103.894 C 212.051 107.905, 212.206 109.850, 211.711 121.945 C 211.323 131.416, 210.509 137.754, 209.010 142.983 C 207.830 147.099, 205.473 153.849, 203.774 157.983 C 202.075 162.117, 198.196 169.897, 195.154 175.270 C 192.112 180.644, 186.025 189.869, 181.627 195.770 C 176.997 201.984, 166.850 213.235, 157.520 222.500 C 148.658 231.300, 138.417 240.750, 134.762 243.500 C 128.115 248.500, 128.115 248.500, 128.058 258.785 C 128.004 268.287, 128.133 268.998, 129.750 268.114 C 130.713 267.588, 137.471 261.914, 144.770 255.503 C 152.068 249.093, 162.362 239.062, 167.644 233.212 C 172.926 227.362, 180.533 218.238, 184.548 212.936 C 188.563 207.634, 193.853 200.192, 196.302 196.398 C 198.751 192.604, 202.808 185.782, 205.317 181.238 C 207.825 176.695, 211.916 168.531, 214.407 163.098 C 216.897 157.664, 220.945 147.350, 223.402 140.177 C 225.859 133.003, 229.001 122.042, 230.384 115.817 C 231.767 109.593, 233.614 99.325, 234.488 93 C 235.439 86.119, 236.084 74.393, 236.094 63.803 C 236.103 54.070, 235.811 44.508, 235.444 42.553 C 235.077 40.599, 234.490 39.020, 234.139 39.044 C 233.787 39.069, 231.875 39.947, 229.889 40.997 M 62.500 84.673 C 61.400 84.971, 56.900 86.931, 52.500 89.029 C 48.100 91.127, 43.038 94.282, 41.250 96.040 C 38.655 98.593, 38 100.046, 38 103.248 C 38 105.454, 39.151 112.393, 40.559 118.668 C 41.966 124.942, 44.678 134.789, 46.585 140.548 C 48.492 146.308, 51.852 155.170, 54.052 160.242 C 56.252 165.314, 60.487 173.766, 63.465 179.024 C 66.442 184.283, 72.240 193.093, 76.349 198.602 C 80.458 204.112, 87.674 212.474, 92.385 217.185 C 97.095 221.895, 104.223 228.234, 108.225 231.272 C 112.226 234.309, 118.085 238.428, 121.245 240.424 C 126.990 244.055, 126.990 244.055, 135.634 235.777 C 140.388 231.225, 149.857 221.256, 156.676 213.625 C 163.494 205.994, 173.078 194.430, 177.973 187.927 C 182.868 181.425, 189.365 171.871, 192.411 166.695 C 195.457 161.520, 198.867 155.144, 199.989 152.527 C 201.110 149.910, 202.880 145.172, 203.922 141.999 C 204.964 138.826, 206.123 133.365, 206.498 129.865 C 206.896 126.147, 206.693 120.819, 206.010 117.054 C 205.367 113.509, 203.974 108.909, 202.914 106.832 C 201.855 104.755, 199.644 101.525, 198.001 99.654 C 196.359 97.783, 192.649 95.203, 189.757 93.921 C 186.066 92.284, 182.564 91.576, 178 91.545 C 174.035 91.519, 169.678 92.204, 166.829 93.303 C 164.139 94.341, 160.469 96.937, 158.176 99.424 C 155.147 102.711, 153.909 105.121, 152.999 109.505 C 152.287 112.935, 152.085 117.540, 152.499 120.883 C 152.882 123.972, 153.826 128.017, 154.598 129.872 C 155.369 131.727, 156 133.575, 156 133.980 C 156 134.385, 153.240 136.419, 149.866 138.502 C 146.493 140.584, 140.645 145.200, 136.872 148.760 C 132.215 153.152, 129.015 157.256, 126.909 161.533 C 125.203 164.999, 123.761 169.447, 123.705 171.417 C 123.649 173.388, 123.355 174.976, 123.052 174.946 C 122.748 174.916, 121.150 172.778, 119.500 170.196 C 117.671 167.332, 114.085 163.881, 110.309 161.350 C 106.905 159.068, 101.730 156.414, 98.809 155.452 C 95.889 154.490, 91.117 152.583, 88.203 151.213 C 85.290 149.843, 80.609 146.656, 77.801 144.131 C 74.927 141.548, 71.661 137.346, 70.331 134.520 C 67.966 129.500, 67.966 129.500, 70.720 127.500 C 72.234 126.400, 74.963 123.926, 76.784 122.003 C 78.605 120.079, 81.285 116.073, 82.740 113.100 C 84.449 109.606, 85.385 106.043, 85.385 103.028 C 85.385 100.296, 84.543 96.734, 83.353 94.432 C 82.236 92.269, 79.562 89.264, 77.411 87.753 C 75.036 86.085, 71.733 84.835, 69 84.569 C 66.525 84.329, 63.600 84.375, 62.500 84.673 M 301.732 113.037 C 299.109 113.479, 295.041 114.770, 292.691 115.907 C 290.342 117.045, 286.479 119.893, 284.107 122.238 C 281.735 124.582, 278.932 128.188, 277.876 130.251 C 276.821 132.315, 275.237 136.815, 274.355 140.251 C 273.252 144.551, 272.917 148.840, 273.280 154 C 273.570 158.125, 274.749 163.997, 275.900 167.048 C 277.051 170.099, 279.353 174.445, 281.015 176.706 C 282.677 178.966, 286.166 182.170, 288.769 183.826 C 291.371 185.482, 296.175 187.606, 299.445 188.546 C 303.835 189.808, 307.627 190.124, 313.945 189.753 C 320.015 189.397, 324.387 188.480, 328.996 186.596 C 332.569 185.135, 337.181 182.822, 339.246 181.456 C 343 178.972, 343 178.972, 343 163.486 C 343 148, 343 148, 326.500 148 C 310 148, 310 148, 310 155 C 310 162, 310 162, 318.500 162 C 327 162, 327 162, 327 166.411 C 327 170.683, 326.850 170.894, 322.250 173.126 C 319.440 174.488, 315.015 175.589, 311.418 175.821 C 306.694 176.124, 304.432 175.751, 301.293 174.150 C 299.070 173.016, 296.082 170.698, 294.652 168.998 C 293.222 167.299, 291.525 164.017, 290.881 161.705 C 290.237 159.392, 289.715 154.100, 289.722 149.945 C 289.730 144.610, 290.315 141.075, 291.715 137.912 C 292.804 135.449, 295.128 132.229, 296.879 130.755 C 298.630 129.282, 301.736 127.612, 303.781 127.044 C 305.826 126.476, 308.625 126.011, 310 126.011 C 311.375 126.011, 314.150 126.470, 316.168 127.030 C 318.225 127.601, 321.189 129.590, 322.918 131.559 C 324.613 133.490, 326 135.778, 326 136.643 C 326 137.767, 326.643 138.064, 328.250 137.680 C 329.488 137.385, 332.563 136.846, 335.085 136.483 C 337.606 136.120, 340.246 135.466, 340.951 135.030 C 341.965 134.403, 341.989 133.497, 341.065 130.698 C 340.423 128.751, 338.648 125.435, 337.121 123.329 C 335.595 121.223, 332.117 118.288, 329.393 116.807 C 326.669 115.326, 321.528 113.642, 317.970 113.065 C 314.411 112.487, 310.375 112.065, 309 112.125 C 307.625 112.186, 304.354 112.596, 301.732 113.037 M 551 126.655 C 551 138.625, 550.905 139.227, 549.250 137.776 C 548.288 136.932, 546.060 135.512, 544.300 134.621 C 542.539 133.729, 538.939 133.010, 536.300 133.022 C 533.660 133.034, 529.700 133.870, 527.500 134.879 C 525.300 135.888, 522.221 138.006, 520.657 139.586 C 519.094 141.166, 517.207 143.633, 516.464 145.069 C 515.722 146.505, 514.595 150.661, 513.961 154.304 C 513.085 159.336, 513.090 162.602, 513.982 167.891 C 514.718 172.259, 516.226 176.541, 518.025 179.378 C 519.602 181.865, 522.797 185.161, 525.124 186.700 C 528.706 189.071, 530.386 189.500, 536.095 189.500 C 542.061 189.500, 543.357 189.133, 547.358 186.313 C 551.879 183.126, 551.879 183.126, 552.190 185.813 C 552.493 188.444, 552.647 188.500, 559.500 188.500 C 566.500 188.500, 566.500 188.500, 566.762 151.250 C 567.024 114, 567.024 114, 559.012 114 C 551 114, 551 114, 551 126.655 M 430.037 134.118 C 428.132 134.696, 425.309 136.068, 423.764 137.168 C 422.219 138.268, 420.034 140.974, 418.908 143.181 C 417.782 145.388, 417.084 147.777, 417.358 148.490 C 417.646 149.241, 420.500 150.094, 424.137 150.516 C 428.800 151.057, 430.526 150.923, 430.834 149.997 C 431.063 149.311, 432.094 147.906, 433.125 146.875 C 434.442 145.558, 436.441 145, 439.845 145 C 443.351 145, 445.170 145.530, 446.425 146.918 C 447.380 147.972, 448.012 149.871, 447.830 151.136 C 447.535 153.193, 446.295 153.720, 436.154 156.096 C 429.913 157.557, 423.641 159.624, 422.215 160.689 C 420.790 161.753, 418.745 163.800, 417.672 165.237 C 416.593 166.682, 415.541 170.009, 415.319 172.676 C 415.009 176.391, 415.444 178.420, 417.212 181.500 C 418.702 184.095, 421.074 186.290, 423.966 187.750 C 426.418 188.988, 430.241 189.997, 432.462 189.994 C 434.683 189.991, 438.174 189.524, 440.219 188.956 C 442.264 188.388, 445.216 186.848, 446.777 185.534 C 449.616 183.145, 449.616 183.145, 450.721 186.073 C 451.800 188.930, 451.996 189, 458.913 189 C 462.811 189, 466 188.797, 466 188.549 C 466 188.301, 465.325 185.506, 464.500 182.339 C 463.471 178.389, 463 171.588, 463 160.691 C 463 148.473, 462.645 144.054, 461.464 141.565 C 460.580 139.702, 458.139 137.320, 455.714 135.953 C 452.289 134.024, 449.815 133.532, 442.500 133.324 C 437.550 133.184, 431.941 133.541, 430.037 134.118 M 496.388 133.980 C 495.227 134.449, 493.314 136.057, 492.138 137.552 C 490 140.270, 490 140.270, 490 137.135 C 490 134, 490 134, 483 134 C 476 134, 476 134, 476 161.544 C 476 189.088, 476 189.088, 483.250 188.794 C 490.500 188.500, 490.500 188.500, 491 170.823 C 491.451 154.879, 491.706 152.869, 493.599 150.323 C 495.102 148.303, 496.725 147.412, 499.307 147.192 C 501.292 147.023, 503.778 147.346, 504.831 147.910 C 506.532 148.820, 506.986 148.311, 508.874 143.379 C 510.043 140.322, 511 137.231, 511 136.509 C 511 135.787, 509.583 134.702, 507.851 134.098 C 506.119 133.494, 503.306 133.029, 501.601 133.063 C 499.895 133.098, 497.550 133.511, 496.388 133.980 M 589 134.119 C 587.075 134.697, 584.078 136.249, 582.339 137.568 C 580.588 138.896, 578.416 141.961, 577.470 144.440 C 576.330 147.424, 575.984 150.101, 576.430 152.478 C 576.798 154.439, 578.424 157.553, 580.045 159.398 C 581.665 161.244, 584.385 163.331, 586.089 164.037 C 587.793 164.743, 593.757 166.503, 599.344 167.949 C 609.340 170.537, 609.500 170.625, 609.500 173.539 C 609.500 176.134, 608.987 176.662, 605.347 177.815 C 602.135 178.831, 600.249 178.875, 597.030 178.008 C 594.026 177.199, 592.331 175.981, 590.947 173.635 C 589.028 170.383, 589.028 170.383, 582.014 171.332 C 577.097 171.998, 575 172.703, 575 173.690 C 575 174.465, 575.635 176.314, 576.411 177.800 C 577.187 179.285, 579.099 181.686, 580.661 183.136 C 582.222 184.586, 585.075 186.599, 587 187.609 C 589.706 189.030, 592.770 189.453, 600.500 189.473 C 608.931 189.496, 611.147 189.154, 614.624 187.294 C 616.893 186.080, 619.918 183.698, 621.348 181.998 C 622.778 180.299, 624.427 177.130, 625.012 174.955 C 625.762 172.169, 625.765 169.839, 625.020 167.073 C 624.424 164.859, 622.656 162.047, 620.968 160.626 C 619.321 159.241, 614.942 157.193, 611.237 156.077 C 607.532 154.960, 601.575 153.237, 598 152.248 C 592.719 150.786, 591.440 150.032, 591.181 148.226 C 590.946 146.592, 591.559 145.738, 593.496 145.002 C 594.945 144.451, 597.960 144, 600.197 144 C 603.501 144, 604.849 144.619, 607.382 147.299 C 610.500 150.597, 610.500 150.597, 616.921 149.294 C 620.453 148.577, 623.545 147.788, 623.793 147.541 C 624.040 147.293, 623.107 145.153, 621.720 142.784 C 620.183 140.162, 617.496 137.521, 614.848 136.029 C 611.273 134.015, 608.899 133.534, 601.500 133.324 C 596.550 133.184, 590.925 133.541, 589 134.119 M 356 155.288 C 356 175.376, 356.127 176.828, 358.250 181.038 C 359.894 184.298, 361.702 186.106, 364.962 187.750 C 367.671 189.116, 371.206 189.991, 373.962 189.978 C 376.458 189.966, 380.300 189.130, 382.500 188.119 C 384.700 187.109, 387.400 185.267, 388.500 184.026 C 390.500 181.770, 390.500 181.770, 391 185.135 C 391.500 188.500, 391.500 188.500, 398.250 188.796 C 405 189.091, 405 189.091, 405 161.546 C 405 134, 405 134, 397.579 134 C 390.159 134, 390.159 134, 389.829 152.430 C 389.528 169.286, 389.321 171.100, 387.404 173.680 C 386.201 175.298, 383.761 176.892, 381.677 177.421 C 379.205 178.048, 377.233 177.972, 375.503 177.183 C 374.104 176.546, 372.519 174.865, 371.980 173.447 C 371.441 172.030, 371 162.574, 371 152.435 C 371 134, 371 134, 363.500 134 C 356 134, 356 134, 356 155.288 M 534.881 146.503 C 533.441 147.286, 531.474 149.588, 530.510 151.620 C 529.154 154.477, 528.865 156.992, 529.233 162.723 C 529.570 167.987, 530.283 170.909, 531.694 172.816 C 532.786 174.292, 534.937 176.116, 536.473 176.868 C 538.708 177.963, 540.048 178.002, 543.181 177.064 C 545.729 176.300, 547.743 174.827, 548.950 172.842 C 549.970 171.165, 551.102 167.803, 551.467 165.370 C 551.832 162.937, 551.623 158.499, 551.002 155.509 C 550.171 151.506, 549.078 149.402, 546.860 147.535 C 544.978 145.952, 542.655 145.015, 540.673 145.040 C 538.928 145.062, 536.322 145.720, 534.881 146.503 M 439 165.581 C 435.975 166.379, 432.712 167.974, 431.750 169.126 C 430.788 170.279, 430 171.867, 430 172.656 C 430 173.445, 431.105 175.195, 432.455 176.545 C 433.805 177.895, 435.844 179, 436.987 179 C 438.129 179, 440.589 178.363, 442.452 177.585 C 444.315 176.806, 446.325 175.261, 446.920 174.150 C 447.514 173.040, 448 170.302, 448 168.066 C 448 164.835, 447.641 164.014, 446.250 164.066 C 445.288 164.102, 442.025 164.784, 439 165.581" stroke="none" fill="#013552" fill-rule="evenodd"/><path d="M 229.889 40.997 C 227.902 42.047, 221.721 44.721, 216.152 46.939 C 210.584 49.158, 201.409 52.349, 195.764 54.031 C 190.119 55.713, 181.450 57.996, 176.500 59.104 C 171.550 60.211, 161.875 61.987, 155 63.048 C 148.125 64.110, 140.025 64.990, 137 65.003 C 133.975 65.016, 130.488 65.299, 129.250 65.630 C 127.066 66.216, 127 66.607, 127 78.954 C 127 85.951, 127.295 103.791, 127.655 118.600 C 128.310 145.524, 128.310 145.524, 133.457 140.512 C 136.288 137.755, 140.269 134.375, 142.303 133 C 144.738 131.354, 145.800 129.988, 145.411 129 C 145.086 128.175, 144.578 124.103, 144.281 119.950 C 143.890 114.473, 144.207 110.800, 145.437 106.569 C 146.756 102.030, 148.288 99.581, 152.347 95.522 C 155.812 92.058, 159.404 89.619, 163.049 88.255 C 166.066 87.126, 171.055 85.887, 174.134 85.502 C 177.484 85.084, 182.097 85.288, 185.617 86.010 C 188.853 86.674, 193.893 88.381, 196.818 89.804 C 199.743 91.227, 203.521 93.968, 205.213 95.895 C 206.904 97.822, 209.184 101.421, 210.277 103.894 C 212.051 107.905, 212.206 109.850, 211.711 121.945 C 211.323 131.416, 210.509 137.754, 209.010 142.983 C 207.830 147.099, 205.473 153.849, 203.774 157.983 C 202.075 162.117, 198.196 169.897, 195.154 175.270 C 192.112 180.644, 186.025 189.869, 181.627 195.770 C 176.997 201.984, 166.850 213.235, 157.520 222.500 C 148.658 231.300, 138.417 240.750, 134.762 243.500 C 128.115 248.500, 128.115 248.500, 128.058 258.785 C 128.004 268.287, 128.133 268.998, 129.750 268.114 C 130.713 267.588, 137.471 261.914, 144.770 255.503 C 152.068 249.093, 162.362 239.062, 167.644 233.212 C 172.926 227.362, 180.533 218.238, 184.548 212.936 C 188.563 207.634, 193.853 200.192, 196.302 196.398 C 198.751 192.604, 202.808 185.782, 205.317 181.238 C 207.825 176.695, 211.916 168.531, 214.407 163.098 C 216.897 157.664, 220.945 147.350, 223.402 140.177 C 225.859 133.003, 229.001 122.042, 230.384 115.817 C 231.767 109.593, 233.614 99.325, 234.488 93 C 235.439 86.119, 236.084 74.393, 236.094 63.803 C 236.103 54.070, 235.811 44.508, 235.444 42.553 C 235.077 40.599, 234.490 39.020, 234.139 39.044 C 233.787 39.069, 231.875 39.947, 229.889 40.997 M 657.099 116.211 C 656.615 117.470, 650.319 133.909, 643.109 152.743 C 635.899 171.576, 630 187.457, 630 188.033 C 630 188.702, 632.979 188.976, 638.242 188.790 C 646.484 188.500, 646.484 188.500, 649.445 180.250 C 652.406 172, 652.406 172, 666.953 172.004 C 681.500 172.008, 681.500 172.008, 684.508 180.254 C 687.515 188.500, 687.515 188.500, 694.914 188.797 C 698.983 188.960, 702.893 188.871, 703.602 188.599 C 704.522 188.246, 700.639 177.585, 690.017 151.302 C 675.145 114.500, 675.145 114.500, 666.562 114.211 C 658.415 113.936, 657.936 114.038, 657.099 116.211 M 662.241 144.899 C 659.909 151.448, 658 157.074, 658 157.403 C 658 157.731, 662.030 158, 666.955 158 C 675.910 158, 675.910 158, 673.359 151.250 C 671.956 147.537, 669.834 141.911, 668.645 138.747 C 666.483 132.993, 666.483 132.993, 662.241 144.899 M 730.338 134.936 C 728.599 135.996, 726.700 137.682, 726.118 138.682 C 725.217 140.231, 725.056 140.020, 725.030 137.250 C 725 134, 725 134, 718 134 C 711 134, 711 134, 711 161.500 C 711 189, 711 189, 718.500 189 C 726 189, 726 189, 726 175.136 C 726 167.512, 726.454 158.880, 727.008 155.956 C 727.563 153.032, 728.791 149.783, 729.738 148.737 C 731.037 147.301, 732.444 146.934, 735.480 147.240 C 737.691 147.463, 740.096 147.837, 740.824 148.073 C 741.691 148.352, 742.955 146.308, 744.481 142.160 C 746.813 135.820, 746.813 135.820, 743.439 134.410 C 741.583 133.634, 738.587 133.002, 736.782 133.004 C 734.977 133.006, 732.077 133.875, 730.338 134.936 M 773.007 134.593 C 771.086 135.426, 768.499 137.062, 767.257 138.228 C 765 140.349, 765 140.349, 765 137.174 C 765 134, 765 134, 758 134 C 751 134, 751 134, 751 161.544 C 751 189.088, 751 189.088, 758.250 188.794 C 765.500 188.500, 765.500 188.500, 766.032 170 C 766.325 159.825, 766.925 150.739, 767.366 149.810 C 767.807 148.880, 769.239 147.418, 770.549 146.560 C 771.858 145.702, 774.209 145, 775.774 145 C 777.338 145, 779.491 145.638, 780.559 146.418 C 782.353 147.728, 782.523 149.394, 782.807 168.418 C 783.114 189, 783.114 189, 790.557 189 C 798 189, 798 189, 798.044 173.750 C 798.068 165.363, 798.475 156.488, 798.950 154.029 C 799.502 151.164, 800.764 148.740, 802.462 147.279 C 803.919 146.026, 806.350 145, 807.865 145 C 809.379 145, 811.491 145.638, 812.559 146.417 C 814.339 147.717, 814.541 149.517, 815 168.167 C 815.500 188.500, 815.500 188.500, 822.750 188.794 C 830 189.088, 830 189.088, 830 166.692 C 830 145.112, 829.918 144.175, 827.750 140.990 C 826.513 139.172, 824.269 136.772, 822.763 135.657 C 820.997 134.349, 817.955 133.480, 814.185 133.207 C 809.705 132.883, 807.429 133.251, 804.421 134.786 C 802.265 135.887, 799.633 137.746, 798.573 138.918 C 796.646 141.049, 796.646 141.049, 793.573 138.086 C 791.883 136.456, 789.233 134.645, 787.685 134.061 C 786.137 133.478, 782.987 133.018, 780.685 133.039 C 778.383 133.061, 774.928 133.760, 773.007 134.593" stroke="none" fill="#86c43e" fill-rule="evenodd"/></svg>